<svg width="15" height="15" viewBox="0 0 15 15" fill="none" xmlns="http://www.w3.org/2000/svg">
<path d="M14.4002 14.4V9.126C14.4002 6.534 13.8422 4.554 10.8182 4.554C9.36024 4.554 8.38824 5.346 7.99224 6.102H7.95624V4.788H5.09424V14.4H8.08224V9.63C8.08224 8.37 8.31624 7.164 9.86424 7.164C11.3942 7.164 11.4122 8.586 11.4122 9.702V14.382H14.4002V14.4Z" fill="#4B4B4B"/>
<path d="M0.233887 4.788H3.22189V14.4H0.233887V4.788Z" fill="#4B4B4B"/>
<path d="M1.728 0C0.774 0 0 0.774 0 1.728C0 2.682 0.774 3.474 1.728 3.474C2.682 3.474 3.456 2.682 3.456 1.728C3.456 0.774 2.682 0 1.728 0Z" fill="#4B4B4B"/>
</svg>
