<svg width="48" height="48" viewBox="0 0 48 48" fill="none" xmlns="http://www.w3.org/2000/svg">
<mask id="mask0_127_296" style="mask-type:luminance" maskUnits="userSpaceOnUse" x="0" y="0" width="48" height="48">
<path d="M48 48L0 48L6.86683e-06 0L48 6.86683e-06L48 48Z" fill="white"/>
</mask>
<g mask="url(#mask0_127_296)">
<path d="M9.14995 38.85C11.1 40.8002 13.4151 42.3473 15.9631 43.4027C18.5111 44.4582 21.242 45.0015 23.9999 45.0015C26.7579 45.0015 29.4888 44.4582 32.0368 43.4027C34.5848 42.3473 36.8999 40.8002 38.8499 38.85C39.1293 38.5689 39.2861 38.1887 39.2861 37.7925C39.2861 37.3962 39.1293 37.016 38.8499 36.735C38.5689 36.4556 38.1887 36.2988 37.7924 36.2988C37.3962 36.2988 37.016 36.4556 36.7349 36.735C34.2151 39.246 31.0077 40.9542 27.5178 41.6436C24.0278 42.3331 20.4118 41.973 17.1264 40.6088C13.841 39.2446 11.0335 36.9374 9.05835 33.9787C7.08325 31.02 6.02914 27.5424 6.02914 23.985C6.02914 20.4275 7.08325 16.9499 9.05835 13.9912C11.0335 11.0325 13.841 8.72532 17.1264 7.36111C20.4118 5.9969 24.0278 5.63679 27.5178 6.32626C31.0077 7.01573 34.2151 8.72386 36.7349 11.235C37.016 11.5143 37.3962 11.6711 37.7924 11.6711C38.1887 11.6711 38.5689 11.5143 38.8499 11.235C39.1293 10.9539 39.2861 10.5737 39.2861 10.1775C39.2861 9.78118 39.1293 9.401 38.8499 9.11996C34.9075 5.18149 29.562 2.97046 23.9893 2.97328C21.2301 2.97467 18.4981 3.51953 15.9493 4.57675C13.4006 5.63397 11.0851 7.18285 9.13495 9.13495C7.18482 11.087 5.63828 13.4041 4.58363 15.9539C3.52898 18.5037 2.98688 21.2363 2.98827 23.9956C2.98966 26.7549 3.53452 29.4869 4.59175 32.0356C5.64897 34.5843 7.19785 36.8998 9.14995 38.85Z" fill="#7EC74C"/>
<path d="M24.315 17.5647C24.4556 17.4253 24.5672 17.2594 24.6433 17.0766C24.7195 16.8938 24.7587 16.6977 24.7587 16.4997C24.7587 16.3017 24.7195 16.1056 24.6433 15.9229C24.5672 15.7401 24.4556 15.5742 24.315 15.4347C24.1756 15.2941 24.0097 15.1825 23.8269 15.1064C23.6441 15.0302 23.448 14.991 23.25 14.991C23.052 14.991 22.8559 15.0302 22.6731 15.1064C22.4903 15.1825 22.3244 15.2941 22.185 15.4347L14.685 22.9347C14.5444 23.0742 14.4328 23.2401 14.3567 23.4229C14.2805 23.6056 14.2413 23.8017 14.2413 23.9997C14.2413 24.1977 14.2805 24.3938 14.3567 24.5766C14.4328 24.7594 14.5444 24.9253 14.685 25.0647L22.185 32.5647C22.4675 32.8472 22.8505 33.0059 23.25 33.0059C23.6495 33.0059 24.0325 32.8472 24.315 32.5647C24.5975 32.2823 24.7561 31.8992 24.7561 31.4997C24.7561 31.1003 24.5975 30.7172 24.315 30.4347L19.365 25.4997L40.5 25.4997C40.8978 25.4997 41.2794 25.3417 41.5607 25.0604C41.842 24.7791 42 24.3976 42 23.9997C42 23.6019 41.842 23.2204 41.5607 22.9391C41.2794 22.6578 40.8978 22.4997 40.5 22.4997L19.365 22.4997L24.315 17.5647Z" fill="#7EC74C"/>
</g>
</svg>
