<svg width="48" height="48" viewBox="0 0 48 48" fill="none" xmlns="http://www.w3.org/2000/svg">
<mask id="mask0_127_289" style="mask-type:luminance" maskUnits="userSpaceOnUse" x="0" y="0" width="48" height="48">
<path d="M5.34108e-06 0L48 5.34108e-06L48 48L0 48L5.34108e-06 0Z" fill="white"/>
</mask>
<g mask="url(#mask0_127_289)">
<path d="M38.8501 9.15005C36.9 7.1998 34.5849 5.65276 32.0369 4.59727C29.4889 3.54179 26.758 2.99854 24.0001 2.99854C21.2421 2.99854 18.5112 3.54179 15.9632 4.59727C13.4152 5.65275 11.1001 7.19979 9.15006 9.15005C8.87068 9.43109 8.71387 9.81127 8.71387 10.2076C8.71387 10.6038 8.87068 10.984 9.15006 11.2651C9.4311 11.5444 9.81128 11.7012 10.2076 11.7012C10.6038 11.7012 10.984 11.5444 11.2651 11.2651C13.7849 8.75396 16.9923 7.04583 20.4822 6.35636C23.9722 5.66689 27.5882 6.02699 30.8736 7.39121C34.159 8.75542 36.9666 11.0626 38.9417 14.0213C40.9168 16.98 41.9709 20.4577 41.9709 24.0151C41.9709 27.5725 40.9168 31.0501 38.9417 34.0088C36.9666 36.9676 34.159 39.2747 30.8736 40.6389C27.5882 42.0031 23.9722 42.3632 20.4822 41.6737C16.9923 40.9843 13.7849 39.2761 11.2651 36.7651C10.984 36.4857 10.6038 36.3289 10.2076 36.3289C9.81128 36.3289 9.4311 36.4857 9.15006 36.7651C8.87068 37.0461 8.71387 37.4263 8.71387 37.8226C8.71387 38.2188 8.87068 38.599 9.15006 38.8801C13.0925 42.8185 18.438 45.0295 24.0107 45.0267C26.77 45.0253 29.502 44.4805 32.0507 43.4233C34.5994 42.366 36.9149 40.8172 38.8651 38.8651C40.8152 36.913 42.3617 34.5959 43.4164 32.0461C44.471 29.4963 45.0131 26.7637 45.0117 24.0044C45.0103 21.2452 44.4655 18.5132 43.4083 15.9644C42.351 13.4157 40.8022 11.1002 38.8501 9.15005Z" fill="#4E4E4E"/>
<path d="M23.685 30.4353C23.5444 30.5747 23.4328 30.7406 23.3567 30.9234C23.2805 31.1062 23.2413 31.3023 23.2413 31.5003C23.2413 31.6983 23.2805 31.8944 23.3567 32.0771C23.4328 32.2599 23.5444 32.4258 23.685 32.5653C23.8244 32.7059 23.9903 32.8175 24.1731 32.8936C24.3559 32.9698 24.552 33.009 24.75 33.009C24.948 33.009 25.1441 32.9698 25.3269 32.8936C25.5097 32.8175 25.6756 32.7059 25.815 32.5653L33.315 25.0653C33.4556 24.9258 33.5672 24.7599 33.6433 24.5771C33.7195 24.3944 33.7587 24.1983 33.7587 24.0003C33.7587 23.8023 33.7195 23.6062 33.6433 23.4234C33.5672 23.2406 33.4556 23.0747 33.315 22.9353L25.815 15.4353C25.5325 15.1528 25.1495 14.9941 24.75 14.9941C24.3506 14.9941 23.9675 15.1528 23.685 15.4353C23.4025 15.7177 23.2439 16.1008 23.2439 16.5003C23.2439 16.8997 23.4025 17.2828 23.685 17.5653L28.635 22.5003L7.5 22.5003C7.10218 22.5003 6.72065 22.6583 6.43934 22.9396C6.15804 23.2209 6 23.6025 6 24.0003C6 24.3981 6.15804 24.7796 6.43934 25.0609C6.72065 25.3422 7.10218 25.5003 7.5 25.5003L28.635 25.5003L23.685 30.4353Z" fill="#4E4E4E"/>
</g>
</svg>
