<svg width="13" height="13" viewBox="0 0 13 13" fill="none" xmlns="http://www.w3.org/2000/svg">
<path d="M9.88332 8.59976C9.45861 8.18046 8.92839 8.18046 8.50638 8.59976C8.18447 8.91897 7.86255 9.23818 7.54605 9.5628C7.45948 9.65207 7.38644 9.67101 7.28094 9.61149C7.07264 9.49788 6.85082 9.4059 6.65063 9.28146C5.71735 8.69444 4.93555 7.9397 4.24302 7.09027C3.89947 6.66826 3.59378 6.2165 3.38007 5.70792C3.33679 5.60513 3.3449 5.5375 3.42877 5.45364C3.75068 5.14254 4.06448 4.82333 4.38099 4.50412C4.82193 4.06047 4.82193 3.54108 4.37828 3.09472C4.1267 2.84044 3.87512 2.59156 3.62354 2.33727C3.36384 2.07758 3.10685 1.81517 2.84445 1.55818C2.41973 1.14429 1.88952 1.14429 1.46751 1.56089C1.14289 1.8801 0.831795 2.20742 0.501763 2.52123C0.196078 2.81068 0.0418832 3.16506 0.00942112 3.57895C-0.0419773 4.25254 0.123039 4.88826 0.355684 5.50774C0.831795 6.79 1.55678 7.92887 2.43597 8.97307C3.62354 10.3852 5.04105 11.5024 6.69933 12.3086C7.44595 12.6711 8.21964 12.9497 9.06095 12.9957C9.63985 13.0281 10.143 12.8821 10.5461 12.4303C10.822 12.1219 11.1331 11.8406 11.4253 11.5457C11.8581 11.1075 11.8608 10.5772 11.4307 10.1444C10.9167 9.62773 10.4 9.11374 9.88332 8.59976Z" fill="#4B4B4B"/>
<path d="M9.36649 6.44373L10.3647 6.27331C10.2078 5.35625 9.77498 4.52576 9.11762 3.8657C8.42239 3.17047 7.5432 2.73223 6.57475 2.59697L6.43408 3.60059C7.18342 3.70609 7.86512 4.04424 8.40345 4.58257C8.91202 5.09114 9.24476 5.73498 9.36649 6.44373Z" fill="#4B4B4B"/>
<path d="M10.9276 2.10463C9.77524 0.952223 8.31714 0.22453 6.70756 0L6.56689 1.00362C7.95736 1.19839 9.21797 1.8287 10.2135 2.8215C11.1576 3.76561 11.7771 4.95859 12.0016 6.2706L12.9998 6.10018C12.7374 4.57987 12.0205 3.20023 10.9276 2.10463Z" fill="#4B4B4B"/>
</svg>
